<svg width="92" height="81" viewBox="0 0 92 81" fill="none" xmlns="http://www.w3.org/2000/svg">
<path d="M38.4531 57.2695L39.8691 53.7539H51.8809L53.2969 57.2695H38.4531ZM35.7188 64.3008L37.0859 60.7852H54.6152L56.1289 64.3008H35.7188ZM32.9844 71.332L34.3516 67.8164H57.3984L58.8633 71.332H32.9844ZM4.41992 81H0.611328L32.5938 0.140625H36.4023L68.3359 81H64.5762L34.498 4.87695L4.41992 81ZM34.9375 13.2266L36.9395 17.7188L11.9395 81H8.17969L34.9375 13.2266ZM38.8438 22.5039L40.6992 27.3379L19.5566 81H15.748L38.8438 22.5039ZM42.5547 32.1719L44.4102 37.1035L27.0762 81H23.3164L42.5547 32.1719ZM91.041 81H87.2324L55.2988 0.140625H59.0586L91.041 81ZM51.4902 0.140625L83.4727 81H79.7129L47.7305 0.140625H51.4902ZM43.9219 0.140625L75.9043 81H72.0957L40.1621 0.140625H43.9219Z" fill="url(#paint0_linear)"/>
<defs>
<linearGradient id="paint0_linear" x1="45.4789" y1="0.640452" x2="48.7196" y2="83.584" gradientUnits="userSpaceOnUse">
<stop stop-color="#53AFA0"/>
<stop offset="0.166667" stop-color="#646A51"/>
<stop offset="0.307292" stop-color="#813C3B"/>
<stop offset="0.427083" stop-color="#873B5D"/>
<stop offset="0.520833" stop-color="#851C73"/>
<stop offset="0.645833" stop-color="#586280"/>
<stop offset="0.744792" stop-color="#586380"/>
<stop offset="0.84375" stop-color="#887232"/>
<stop offset="1" stop-color="#784A42"/>
</linearGradient>
</defs>
</svg>
