<svg width="912" height="456" viewBox="0 0 912 456" fill="none" xmlns="http://www.w3.org/2000/svg">
<g opacity="0.3">
<path d="M912 0H0V456H912V0Z" fill="#282828"/>
<path d="M628.425 418.836C629.85 418.152 642.561 413.934 643.017 414.561C643.302 414.96 640.794 428.127 640.395 428.526C640.281 428.697 631.275 421.515 628.425 418.836ZM698.991 130.587C698.991 130.53 696.198 125.229 695.001 122.493C694.944 122.322 694.83 121.866 694.773 121.581C694.716 121.353 694.602 121.182 694.431 121.068C694.26 120.954 694.089 121.011 693.975 121.125L686.508 128.136C686.394 128.25 686.337 128.421 686.28 128.592C686.28 128.763 686.28 128.991 686.394 129.162C686.451 129.219 687.192 130.587 687.591 131.214C688.959 133.323 691.296 138.111 691.296 138.168C691.41 138.339 691.524 138.453 691.695 138.51C691.866 138.51 691.98 138.453 692.094 138.339C692.094 138.339 693.12 136.914 693.633 136.287C694.488 135.375 695.343 134.463 696.255 133.608C696.939 132.924 697.167 132.81 697.452 132.696C697.737 132.525 698.079 132.411 698.877 131.613C699.105 131.328 699.162 130.872 698.991 130.587ZM18.8099 439.071C18.8099 438.672 18.5249 438.387 18.1259 438.387C18.0689 438.387 17.9549 438.387 17.8979 438.444C16.9859 438.558 9.74693 438.501 5.24393 438.444C5.07293 438.444 4.90193 438.501 4.73093 438.672C4.61693 438.786 4.50293 438.957 4.50293 439.185C4.50293 439.299 4.50293 441.978 4.55993 442.548L4.78793 450.3C4.78793 450.471 4.90193 450.642 5.01593 450.813C5.12993 450.927 5.30093 450.984 5.47193 450.984H5.52893C9.68993 450.585 13.9079 450.471 18.0689 450.642C18.2399 450.642 18.4679 450.585 18.5819 450.471C18.6959 450.357 18.8099 450.129 18.8099 449.958C18.7529 446.481 18.7529 442.434 18.8099 439.071Z" fill="#FF9340"/>
<path d="M97.5273 218.538C98.2683 217.113 105.678 205.998 106.419 206.226C106.875 206.397 112.974 218.31 112.974 218.823C112.917 218.994 101.403 218.88 97.5273 218.538ZM339.948 405.726C339.891 405.669 336.129 401.052 334.419 398.601C334.305 398.43 334.134 398.031 334.02 397.746C333.906 397.518 333.792 397.347 333.621 397.29C333.45 397.233 333.279 397.29 333.165 397.461L327.18 405.84C327.066 405.954 327.066 406.125 327.066 406.353C327.066 406.524 327.18 406.752 327.294 406.866C327.351 406.923 328.32 408.12 328.89 408.633C330.657 410.4 333.906 414.618 333.963 414.675C334.077 414.846 334.248 414.903 334.419 414.903C334.59 414.903 334.704 414.789 334.761 414.618C334.761 414.618 335.445 413.022 335.901 412.281C336.528 411.198 337.212 410.172 337.896 409.146C338.409 408.348 338.637 408.177 338.865 408.006C339.15 407.778 339.435 407.607 340.062 406.638C340.233 406.467 340.176 406.011 339.948 405.726ZM414.675 102.543C415.017 102.657 415.416 102.429 415.473 102.087C415.473 102.03 415.473 101.973 415.473 101.859C415.587 101.061 417.069 94.677 418.038 90.744C418.095 90.573 418.038 90.402 417.924 90.288C417.81 90.117 417.639 90.06 417.468 90.003C417.354 90.003 414.789 89.3761 414.219 89.2621L406.581 87.723C406.41 87.666 406.182 87.7231 406.068 87.8371C405.954 87.9511 405.84 88.065 405.783 88.179V88.236C405.327 91.941 404.529 95.703 403.56 99.294C403.503 99.465 403.56 99.6361 403.674 99.8071C403.788 99.9781 403.959 100.035 404.13 100.092C407.436 100.833 411.369 101.745 414.675 102.543ZM415.245 101.517C415.188 101.46 415.131 101.403 415.017 101.403C415.131 101.403 415.188 101.46 415.245 101.517Z" fill="#A34A36"/>
<path d="M398.772 269.439C397.917 269.439 397.176 268.983 396.777 268.128C396.321 267.045 396.777 265.734 397.86 265.278C399.969 264.366 401.736 262.599 402.648 260.433C403.56 258.267 403.617 255.816 402.762 253.65C402.591 253.137 402.306 252.624 402.078 252.054C401.622 251.085 401.052 249.945 400.767 248.691C400.254 246.354 400.653 243.789 401.907 241.395C402.876 239.628 404.244 237.918 406.239 236.208C407.151 235.41 408.519 235.524 409.26 236.436C410.058 237.348 409.944 238.716 409.032 239.457C407.436 240.882 406.353 242.136 405.669 243.447C404.871 244.929 404.586 246.468 404.928 247.779C405.099 248.577 405.498 249.375 405.897 250.23C406.182 250.857 406.467 251.484 406.752 252.111C407.949 255.303 407.892 258.951 406.581 262.143C405.27 265.278 402.705 267.9 399.57 269.268C399.342 269.382 399.057 269.439 398.772 269.439ZM422.028 240.198C422.883 240.084 423.738 240.483 424.194 241.281C424.821 242.307 424.422 243.675 423.396 244.302C421.287 245.499 419.748 247.494 419.064 249.717C418.38 251.997 418.608 254.505 419.691 256.614C419.919 257.127 420.261 257.583 420.603 258.153C421.173 259.122 421.857 260.148 422.313 261.402C423.111 263.682 422.997 266.361 421.971 268.926C421.173 270.864 419.976 272.688 418.095 274.683C417.24 275.595 415.872 275.652 414.96 274.797C414.048 273.999 413.991 272.574 414.846 271.719C416.328 270.123 417.297 268.698 417.867 267.33C418.494 265.734 418.608 264.138 418.152 262.827C417.867 262.086 417.411 261.288 416.898 260.49C416.556 259.92 416.157 259.293 415.815 258.666C414.219 255.588 413.877 251.883 414.846 248.52C415.872 245.157 418.152 242.25 421.23 240.54C421.458 240.312 421.743 240.198 422.028 240.198ZM148.941 336.813C152.19 340.689 154.071 345.762 154.299 349.581C154.584 353.742 152.931 358.929 148.485 361.209C146.775 362.064 144.666 362.463 142.101 362.463C137.598 362.406 134.748 360.81 133.323 357.675C132.126 354.996 132.012 351.177 134.349 348.612C136.173 346.617 138.795 346.275 140.733 347.7C141.417 348.213 141.588 349.239 141.075 349.923C140.562 350.607 139.536 350.778 138.852 350.265C137.826 349.524 136.8 350.607 136.686 350.721C135.318 352.203 135.489 354.711 136.23 356.364C137.085 358.302 138.909 359.214 142.158 359.271C144.21 359.271 145.806 358.986 147.06 358.359C149.739 356.991 151.449 353.457 151.164 349.809C150.879 345.648 148.143 339.435 143.754 336.186C141.36 334.419 138.909 333.849 136.401 334.419C134.634 334.818 132.867 335.787 130.872 337.269C127.11 340.176 124.203 343.995 122.778 348.099C121.239 352.488 121.581 357.105 123.861 361.722C124.26 362.52 123.918 363.489 123.12 363.831C122.322 364.23 121.353 363.888 121.011 363.09C118.389 357.732 117.933 352.146 119.757 347.016C121.41 342.342 124.659 337.953 128.934 334.704C131.271 332.937 133.494 331.797 135.66 331.284C139.08 330.486 142.5 331.284 145.635 333.564C146.832 334.533 147.972 335.616 148.941 336.813Z" fill="white" fill-opacity="0.69"/>
<path d="M577.809 91.77C580.044 91.77 581.856 89.9581 581.856 87.723C581.856 85.4879 580.044 83.676 577.809 83.676C575.574 83.676 573.762 85.4879 573.762 87.723C573.762 89.9581 575.574 91.77 577.809 91.77Z" fill="white" fill-opacity="0.69"/>
<path d="M583.851 79.344C586.086 79.344 587.898 77.5321 587.898 75.297C587.898 73.0619 586.086 71.25 583.851 71.25C581.616 71.25 579.804 73.0619 579.804 75.297C579.804 77.5321 581.616 79.344 583.851 79.344Z" fill="white" fill-opacity="0.69"/>
<path d="M591.261 88.92C593.496 88.92 595.308 87.1081 595.308 84.873C595.308 82.6379 593.496 80.826 591.261 80.826C589.026 80.826 587.214 82.6379 587.214 84.873C587.214 87.1081 589.026 88.92 591.261 88.92Z" fill="white" fill-opacity="0.69"/>
<path d="M859.959 169.404C857.223 166.326 854.43 163.248 851.523 160.17C854.715 156.978 857.85 153.615 860.415 149.796C861.099 148.827 860.814 147.459 859.845 146.832C858.876 146.148 857.508 146.433 856.881 147.402C854.487 150.936 851.694 154.014 848.616 157.035C845.88 154.185 843.087 151.335 840.237 148.542C839.382 147.687 838.014 147.687 837.216 148.542C836.361 149.397 836.361 150.765 837.216 151.563C840.009 154.299 842.745 157.149 845.481 159.999C844.854 160.626 844.17 161.253 843.486 161.823C841.149 163.989 838.698 166.269 836.418 168.663C835.62 169.518 835.62 170.829 836.418 171.684C837.273 172.482 838.641 172.482 839.439 171.627C841.662 169.347 844.056 167.124 846.336 164.958C847.02 164.331 847.647 163.704 848.331 163.077C851.124 166.098 853.917 169.119 856.653 172.14C856.71 172.197 856.71 172.197 856.767 172.254C857.565 173.052 858.876 173.109 859.731 172.368C860.7 171.684 860.757 170.316 859.959 169.404ZM186.732 141.702L186.504 140.22C185.649 133.893 185.25 126.996 185.193 119.13C185.193 115.995 185.193 112.575 185.307 108.585C185.307 108.186 185.307 107.73 185.307 107.274C185.307 104.424 185.307 100.89 187.53 99.579C188.784 98.838 190.437 99.009 192.375 100.092C195.624 101.859 199.899 105.051 202.35 108.585C205.485 113.031 206.511 118.218 205.2 123.234C203.376 130.245 196.65 140.904 188.1 141.531L186.732 141.702ZM189.297 102.144C189.183 102.144 189.126 102.144 189.069 102.201C189.012 102.258 188.67 102.486 188.442 103.74C188.271 104.823 188.271 106.134 188.271 107.331C188.271 107.787 188.271 108.3 188.271 108.699C188.157 112.632 188.157 115.995 188.157 119.13C188.214 126.255 188.556 132.525 189.297 138.339C195.567 136.8 200.925 128.022 202.407 122.493C203.49 118.389 202.635 114.057 200.013 110.352C197.79 107.217 193.8 104.31 190.95 102.771C190.152 102.315 189.582 102.144 189.297 102.144ZM294.291 34.656C294.234 34.656 294.177 34.656 294.063 34.599C292.695 34.2 291.783 34.086 290.244 34.2C289.845 34.2 289.503 33.915 289.446 33.516C289.446 33.117 289.731 32.775 290.13 32.718C291.897 32.604 292.923 32.718 294.462 33.174C294.861 33.288 295.089 33.687 294.975 34.086C294.861 34.428 294.576 34.656 294.291 34.656ZM288.477 40.185C288.192 40.185 287.907 40.014 287.793 39.729C287.337 38.532 287.109 37.278 287.052 35.967C287.052 35.568 287.337 35.226 287.736 35.226C288.135 35.226 288.477 35.511 288.477 35.91C288.534 37.05 288.762 38.133 289.104 39.216C289.218 39.615 289.047 40.014 288.648 40.128C288.648 40.185 288.534 40.185 288.477 40.185ZM281.637 36.708C281.409 36.708 281.181 36.594 281.067 36.423C280.839 36.081 280.896 35.625 281.181 35.397C282.207 34.599 283.29 33.915 284.487 33.345C284.829 33.174 285.285 33.345 285.456 33.687C285.627 34.029 285.456 34.485 285.114 34.656C284.031 35.169 283.005 35.796 282.093 36.537C281.979 36.651 281.808 36.708 281.637 36.708ZM285.285 31.521C285 31.521 284.772 31.35 284.601 31.122C284.316 30.552 283.917 30.039 283.233 29.184C283.062 28.956 282.834 28.671 282.606 28.386C282.378 28.044 282.435 27.588 282.72 27.36C283.062 27.132 283.518 27.189 283.746 27.474C283.974 27.759 284.202 28.044 284.373 28.272C285.114 29.184 285.57 29.754 285.912 30.495C286.083 30.837 285.912 31.293 285.57 31.464C285.513 31.521 285.399 31.521 285.285 31.521ZM288.819 31.35C288.648 31.35 288.534 31.293 288.363 31.236C288.021 31.008 287.964 30.552 288.192 30.21C288.876 29.241 289.503 28.272 290.073 27.246C290.244 26.904 290.7 26.733 291.042 26.961C291.384 27.132 291.555 27.588 291.327 27.93C290.757 29.013 290.073 30.096 289.332 31.122C289.218 31.236 289.047 31.35 288.819 31.35ZM586.701 218.196C586.644 218.196 586.587 218.196 586.473 218.139C585.105 217.74 584.193 217.626 582.654 217.74C582.255 217.74 581.913 217.455 581.856 217.056C581.856 216.657 582.141 216.315 582.54 216.258C584.307 216.144 585.333 216.258 586.872 216.714C587.271 216.828 587.499 217.227 587.385 217.626C587.271 217.968 586.986 218.196 586.701 218.196ZM580.887 223.725C580.602 223.725 580.317 223.554 580.203 223.269C579.747 222.072 579.519 220.818 579.462 219.507C579.462 219.108 579.747 218.766 580.146 218.766C580.545 218.766 580.887 219.051 580.887 219.45C580.944 220.59 581.172 221.673 581.514 222.756C581.628 223.155 581.457 223.554 581.058 223.668C581.058 223.725 580.944 223.725 580.887 223.725ZM574.047 220.248C573.819 220.248 573.591 220.134 573.477 219.963C573.249 219.621 573.306 219.165 573.591 218.937C574.617 218.139 575.7 217.455 576.897 216.885C577.239 216.714 577.695 216.885 577.866 217.227C578.037 217.569 577.866 218.025 577.524 218.196C576.441 218.709 575.415 219.336 574.503 220.077C574.389 220.191 574.218 220.248 574.047 220.248ZM577.695 215.061C577.41 215.061 577.182 214.89 577.011 214.662C576.726 214.092 576.327 213.579 575.643 212.724C575.472 212.496 575.244 212.211 575.016 211.926C574.788 211.584 574.845 211.128 575.13 210.9C575.472 210.672 575.928 210.729 576.156 211.014C576.384 211.299 576.612 211.584 576.783 211.812C577.524 212.724 577.98 213.294 578.322 214.035C578.493 214.377 578.322 214.833 577.98 215.004C577.923 215.061 577.809 215.061 577.695 215.061ZM581.229 214.89C581.058 214.89 580.944 214.833 580.773 214.776C580.431 214.548 580.374 214.092 580.602 213.75C581.286 212.781 581.913 211.812 582.483 210.786C582.654 210.444 583.11 210.273 583.452 210.501C583.794 210.672 583.965 211.128 583.737 211.47C583.167 212.553 582.483 213.636 581.742 214.662C581.628 214.776 581.457 214.89 581.229 214.89ZM757.929 326.838C757.131 326.838 756.276 326.724 755.364 326.439C750.576 324.9 745.902 319.2 744.705 315.039C744.477 314.241 744.306 313.386 744.192 312.531C739.575 314.412 735.357 318.573 735.414 324.501C735.414 325.356 734.73 326.04 733.875 326.097C733.02 326.097 732.336 325.413 732.336 324.558C732.279 320.739 733.704 317.205 736.326 314.298C738.378 312.018 741.114 310.251 744.135 309.282C744.42 305.577 745.902 301.929 748.353 299.364C752.343 295.146 758.727 294.291 763.914 293.607L764.313 293.55C765.168 293.436 765.966 294.063 766.08 294.861C766.194 295.716 765.567 296.514 764.769 296.628L764.37 296.685C759.468 297.369 753.882 298.11 750.69 301.473C748.98 303.297 747.84 305.862 747.441 308.541C751.944 307.971 757.53 309.282 761.292 311.79C763.743 313.443 765.339 316.236 765.396 319.029C765.51 321.48 764.427 323.76 762.432 325.356C761.064 326.268 759.582 326.838 757.929 326.838ZM747.27 311.619C747.327 312.474 747.498 313.329 747.726 314.127C748.695 317.433 752.685 322.221 756.333 323.418C757.929 323.931 759.24 323.703 760.437 322.791C761.976 321.594 762.261 320.055 762.204 319.029C762.147 317.205 761.064 315.381 759.468 314.298C756.219 312.075 751.089 310.992 747.27 311.619Z" fill="white" fill-opacity="0.69"/>
</g>
</svg>
