<svg width="49" height="49" viewBox="0 0 49 49" fill="none" xmlns="http://www.w3.org/2000/svg">
<path fill-rule="evenodd" clip-rule="evenodd" d="M33.8333 0H14.5C6.49187 0 0 6.49187 0 14.5V33.8333C0 41.8414 6.49187 48.3333 14.5 48.3333H33.8333C41.8414 48.3333 48.3333 41.8414 48.3333 33.8333V14.5C48.3333 6.49187 41.8414 0 33.8333 0ZM4.83333 14.5C4.83333 9.16125 9.16125 4.83333 14.5 4.83333H33.8333C39.172 4.83333 43.5 9.16125 43.5 14.5V33.8333C43.5 39.172 39.172 43.5 33.8333 43.5H14.5C9.16125 43.5 4.83333 39.172 4.83333 33.8333V14.5ZM24.1667 36.25C17.4932 36.25 12.0833 30.8401 12.0833 24.1667C12.0833 17.4932 17.4932 12.0833 24.1667 12.0833C30.8401 12.0833 36.25 17.4932 36.25 24.1667C36.25 30.8401 30.8401 36.25 24.1667 36.25ZM24.1667 31.4167C28.1708 31.4167 31.4167 28.1708 31.4167 24.1667C31.4167 20.1625 28.1708 16.9167 24.1667 16.9167C20.1625 16.9167 16.9167 20.1625 16.9167 24.1667C16.9167 28.1708 20.1625 31.4167 24.1667 31.4167ZM38.6667 12.0833C38.6667 13.418 37.5847 14.5 36.25 14.5C34.9153 14.5 33.8333 13.418 33.8333 12.0833C33.8333 10.7487 34.9153 9.66667 36.25 9.66667C37.5847 9.66667 38.6667 10.7487 38.6667 12.0833Z" fill="#E76464" fill-opacity="0.6"/>
</svg>
